<svg width="45" height="45" viewBox="0 0 45 45" fill="none" xmlns="http://www.w3.org/2000/svg">
<rect x="0.5625" y="0.278564" width="44" height="44" rx="3" fill="#1DA1F2"/>
<g clip-path="url(#clip0_58_54779)">
<rect x="7.89606" y="7.61182" width="29.3333" height="27.5" fill="#1DA1F2"/>
<path d="M14.556 35.1118V16.5576H8.2671V35.1118H14.556ZM11.4124 14.0228C13.6054 14.0228 14.9705 12.5981 14.9705 10.8176C14.9296 8.99702 13.6055 7.61182 11.454 7.61182C9.3028 7.61182 7.89606 8.99705 7.89606 10.8176C7.89606 12.5982 9.26079 14.0228 11.3713 14.0228H11.4122H11.4124ZM18.0369 35.1118H24.3258V24.7503C24.3258 24.1957 24.3666 23.6418 24.5327 23.2453C24.9873 22.1374 26.0221 20.9899 27.7593 20.9899C30.035 20.9899 30.9454 22.6914 30.9454 25.1856V35.1117H37.2339V24.4729C37.2339 18.7738 34.1313 16.122 29.9936 16.122C26.601 16.122 25.1114 17.9816 24.2839 19.2482H24.3259V16.5572H18.037C18.1195 18.2983 18.037 35.1115 18.037 35.1115L18.0369 35.1118Z" fill="white"/>
</g>
<defs>
<clipPath id="clip0_58_54779">
<rect x="7.89606" y="7.61182" width="29.3333" height="27.5" fill="white"/>
</clipPath>
</defs>
</svg>
